<svg id="Camada_1" data-name="Camada 1" xmlns="http://www.w3.org/2000/svg" 
xmlns:xlink="http://www.w3.org/1999/xlink" viewBox="0 0 375 375">
  <defs>
    <style>
      .cls-1{fill:none;}
      .cls-2{clip-path:url(#clip-path);}
      .cls-3{fill:#a60000;}
      .cls-4{clip-path:url(#clip-path-2);}
      .cls-5{font-size:32.3px;}
      .cls-5,.cls-7{font-family:Quicksand-Regular, Quicksand Regular;}
      .cls-6{fill:#fff;}
      .cls-7{font-size:25.57px;}
      .cls-8{fill:#333330;}
    </style>
    
    <!-- <clipPath id="clip-path"><rect class="cls-1" width="375" height="375"/>
    </clipPath>
    <clipPath id="clip-path-2"/> -->
  </defs>

  <title>ShowUsVermelho2</title>
  <g class="cls-2">
    <rect class="cls-3" width="375" height="375"/>  
  </g>
    <g class="cls-4">
      <text class="cls-5" transform="translate(230.52 243.54)"> </text>
      <path class="cls-6" d="M223.29,145V47.88h28.37V143c0,1.44,0,2.57,0,3.4a26.4,26.4,0,0,0,.41,3.4,10.71,10.71,0,0,0,1.08,3.4,6.59,6.59,0,0,0,2.12,2.2,6,6,0,0,0,3.48.95,7.28,7.28,0,0,0,3-.58,4.55,4.55,0,0,0,2-1.78,16.11,16.11,0,0,0,1.2-2.32,10.73,10.73,0,0,0,.62-3c.11-1.24.18-2.2.21-2.86s0-1.6,0-2.82V47.88h28.36V145q0,17.91-8.58,27.2T259,181.4q-18.48.07-27.07-9.21T223.29,145Z"/>
      <path class="cls-6" d="M263,339.36q-20.32,0-29-9.29t-8.67-28.71V288.41h28.87v11.87q0,12.78,7,12.78a6,6,0,0,0,5.1-2.49A10.64,10.64,0,0,0,268.1,304a24.3,24.3,0,0,0-1.45-9,23.45,23.45,0,0,0-4.4-6.93,115.17,115.17,0,0,0-9.66-9.08l-12.37-10.7q-14.92-12.87-14.93-29,0-17.6,9-26.18t24.77-8.59h5.14a39.29,39.29,0,0,1,10.46,1.87A29.8,29.8,0,0,1,286,212.62a26.41,26.41,0,0,1,7.47,12.12,62.62,62.62,0,0,1,2.49,19H266.36l-.17-8a5.67,5.67,0,0,0-1.9-4,5.78,5.78,0,0,0-4.07-1.74,7.23,7.23,0,0,0-4.94,1.78,5.85,5.85,0,0,0-2,4.6q0,5.66,8.21,12.28l17.68,14.27a62.75,62.75,0,0,1,7.5,7.1,37.12,37.12,0,0,1,5.07,7.13,70,70,0,0,1,3,6.39,25.23,25.23,0,0,1,1.62,6.22q.47,3.36.54,5.07c.06,1.13.08,2.61.08,4.43a80.08,80.08,0,0,1-.91,12.66,44.91,44.91,0,0,1-3.23,10.95,26.57,26.57,0,0,1-6.1,8.79,26.88,26.88,0,0,1-9.79,5.6A42.94,42.94,0,0,1,263,339.36Z"/>
      <text class="cls-7" transform="translate(125.45 221.97)"> </text>
      <path class="cls-8" d="M137.27,178.49q-12.87,0-18.36-5.88t-5.48-18.17v-8.19H131.7v7.51q0,8.09,4.41,8.09a3.82,3.82,0,0,0,3.23-1.58,6.72,6.72,0,0,0,1.18-4.15,15.44,15.44,0,0,0-.92-5.67,14.63,14.63,0,0,0-2.78-4.38,70.75,70.75,0,0,0-6.12-5.75l-7.82-6.78q-9.45-8.13-9.45-18.37,0-11.13,5.69-16.57t15.68-5.43h3.25a24.62,24.62,0,0,1,6.62,1.18,18.7,18.7,0,0,1,7.19,3.94,16.63,16.63,0,0,1,4.73,7.66,39.69,39.69,0,0,1,1.57,12H139.42l-.11-5a3.54,3.54,0,0,0-1.2-2.52,3.63,3.63,0,0,0-2.58-1.1,4.58,4.58,0,0,0-3.12,1.12,3.72,3.72,0,0,0-1.29,2.92q0,3.57,5.2,7.77l11.18,9a39.79,39.79,0,0,1,4.76,4.49,23.72,23.72,0,0,1,3.2,4.52,42.87,42.87,0,0,1,1.92,4,16.15,16.15,0,0,1,1,3.94c.19,1.42.31,2.48.34,3.2s0,1.66,0,2.81a51.46,51.46,0,0,1-.57,8,28.34,28.34,0,0,1-2.05,6.93,16.7,16.7,0,0,1-3.86,5.56,17.13,17.13,0,0,1-6.2,3.55A27.19,27.19,0,0,1,137.27,178.49Z"/>
      <path class="cls-8" d="M183.43,139.58v38H165.05V93.9h18.38v29.88h8.71V93.9h18.38v83.65H192.14v-38Z"/>
      <path class="cls-8" d="M87.06,251.41V211.56q0-10.45,5.65-16.2t17-5.91q11.67.17,17.31,5.91t5.64,16.2v39.85a31.28,31.28,0,0,1-1.29,9.27,22,22,0,0,1-3.91,7.43,17,17,0,0,1-7.11,5A26,26,0,0,1,110,274.78a26.88,26.88,0,0,1-10.63-1.63,16.93,16.93,0,0,1-7.12-5,22.12,22.12,0,0,1-3.91-7.43A31.28,31.28,0,0,1,87.06,251.41Zm22.79,7a3.8,3.8,0,0,0,1.76-.39,2.83,2.83,0,0,0,1.21-1.21,11,11,0,0,0,.71-1.55,8.76,8.76,0,0,0,.37-2c.07-.82.11-1.45.13-1.89s0-1,0-1.81v-34q0-.31,0-1.26c0-.63,0-1.11,0-1.42s0-.78,0-1.39a6.63,6.63,0,0,0-.16-1.42c-.09-.33-.19-.75-.32-1.26a2.88,2.88,0,0,0-.49-1.15c-.21-.27-.46-.55-.74-.85a2.43,2.43,0,0,0-1-.63,5.15,5.15,0,0,0-1.42-.18,4.52,4.52,0,0,0-1.91.37,2.73,2.73,0,0,0-1.29,1.18c-.32.54-.58,1-.79,1.47a5.8,5.8,0,0,0-.42,1.94c-.07.86-.1,1.47-.1,1.84v36.15c0,.77,0,1.39,0,1.84s.06,1.12.13,2a8.6,8.6,0,0,0,.4,2.12,11.85,11.85,0,0,0,.76,1.71,3.1,3.1,0,0,0,1.29,1.34A3.88,3.88,0,0,0,109.85,258.39Z"/>
      <path class="cls-8" d="M159.75,243.11l5.2-52.77h17.22l4.94,52.77L192,190.34h18.28L200.23,274H178.08l-4.62-40.33L169,274H146.52l-9.92-83.65h18.06Z"/>
    </g>
</svg>
